<?xml version="1.0" encoding="UTF-8"?>
<svg version="1.1" xmlns="http://www.w3.org/2000/svg" width="300" height="300">
<path d="M0 0 C99 0 198 0 300 0 C300 99 300 198 300 300 C201 300 102 300 0 300 C0 201 0 102 0 0 Z " fill="#FCFBFB" transform="translate(0,0)"/>
<path d="M0 0 C13 1 13 1 15 2 C16.43805239 2.1076933 17.88077955 2.15619161 19.32275391 2.17358398 C20.6652269 2.19381874 20.6652269 2.19381874 22.03482056 2.21446228 C23.49098282 2.23011986 23.49098282 2.23011986 24.9765625 2.24609375 C27.02995187 2.27905137 29.08333718 2.31226268 31.13671875 2.34570312 C34.37545792 2.39297862 37.61418294 2.43736828 40.85302734 2.47680664 C43.97772029 2.51674417 47.10206468 2.56825636 50.2265625 2.62109375 C51.18519196 2.6295079 52.14382141 2.63792206 53.13150024 2.64659119 C58.75727201 2.74903631 63.59204319 3.44361238 69 5 C70.27875 5.268125 71.5575 5.53625 72.875 5.8125 C80.10495071 7.61998768 87.09510929 11.49363604 93 16 C93 16.66 93 17.32 93 18 C93.78375 17.505 94.5675 17.01 95.375 16.5 C98 15 98 15 100 15 C100.33 14.01 100.66 13.02 101 12 C102.890625 10.90234375 102.890625 10.90234375 105.25 9.9375 C106.40242188 9.45603516 106.40242188 9.45603516 107.578125 8.96484375 C108.37734375 8.64644531 109.1765625 8.32804687 110 8 C110.76207764 7.68289062 111.52415527 7.36578125 112.30932617 7.0390625 C124.43213041 2.35757671 136.63883704 2.52179536 149.4375 2.4375 C165.88975699 2.32974575 165.88975699 2.32974575 182.20727539 0.42211914 C185 0 185 0 190 0 C190 17.82 190 35.64 190 54 C185.38511254 55.53829582 183.24655229 56.24856557 178.73925781 56.23950195 C177.23543549 56.2450988 177.23543549 56.2450988 175.70123291 56.25080872 C174.6293573 56.24667465 173.55748169 56.24254059 172.453125 56.23828125 C170.13931718 56.25371975 167.825515 56.27002472 165.51171875 56.28710938 C161.89847232 56.30343795 158.28564294 56.31257054 154.67236328 56.30541992 C126.18717159 56.26376153 126.18717159 56.26376153 102 70 C99.92146283 72.27608409 97.97393597 74.63127684 96 77 C95.01 77 94.02 77 93 77 C92.67 76.01 92.34 75.02 92 74 C83.1740399 63.72424242 69.14864173 58.47388606 56 57 C47.32676633 56.45234279 38.62476002 56.48427428 29.9375 56.4375 C26.44506611 56.41365346 22.95287639 56.38554232 19.46058655 56.34571838 C17.30152439 56.32148969 15.14233262 56.30652701 12.98313904 56.30210876 C12.00764603 56.29192215 11.03215302 56.28173553 10.02709961 56.27124023 C9.17442001 56.26696518 8.32174042 56.26269012 7.44322205 56.25828552 C5 56 5 56 0 54 C0 36.18 0 18.36 0 0 Z " fill="#B72226" transform="translate(49,14)"/>
<path d="M0 0 C5.71927496 4.0881092 9.3979894 8.00196869 12.328125 14.390625 C13.00814456 16.05700055 13.00814456 16.05700055 14.125 17.0625 C14.25636663 19.33035901 14.3164532 21.60236072 14.34960938 23.8737793 C14.36669449 24.94218803 14.36669449 24.94218803 14.38412476 26.03218079 C14.49489304 33.49575764 14.54223302 40.96033458 14.58496094 48.42456055 C14.60722487 51.96639541 14.64896933 55.50717464 14.70800781 59.04858398 C14.77912791 63.32276855 14.8157977 67.59596067 14.82807922 71.87070656 C14.83847707 73.49865598 14.86089546 75.12657557 14.89567566 76.75418663 C15.15245718 89.42875841 15.15245718 89.42875841 12.65844727 93.3944397 C9.70069295 96.06640085 7.00710467 97.24153549 3.125 98.0625 C3.125 98.7225 3.125 99.3825 3.125 100.0625 C-7.89292089 103.72968318 -18.59657157 104.44056991 -30.125 104.375 C-31.15997116 104.37077026 -31.15997116 104.37077026 -32.21585083 104.36645508 C-44.61091488 104.288442 -44.61091488 104.288442 -49.875 103.0625 C-49.875 102.4025 -49.875 101.7425 -49.875 101.0625 C-50.75542969 100.88074219 -51.63585937 100.69898438 -52.54296875 100.51171875 C-53.70441406 100.26035156 -54.86585938 100.00898438 -56.0625 99.75 C-57.21105469 99.50636719 -58.35960937 99.26273437 -59.54296875 99.01171875 C-62.90324103 98.05445478 -65.1140114 97.1917362 -67.875 95.0625 C-68.47627258 92.49983215 -68.47627258 92.49983215 -68.44262695 89.39770508 C-68.4422493 88.23672806 -68.44187164 87.07575104 -68.44148254 85.8795929 C-68.41567612 84.62639755 -68.38986969 83.37320221 -68.36328125 82.08203125 C-68.35620651 80.79890549 -68.34913177 79.51577972 -68.34184265 78.19377136 C-68.32276759 74.78532078 -68.27366571 71.3779386 -68.21832275 67.96990967 C-68.16713925 64.49115452 -68.14433074 61.01222641 -68.11914062 57.53320312 C-68.06554505 50.709197 -67.98022794 43.88589981 -67.875 37.0625 C-67.26011719 37.371875 -66.64523438 37.68125 -66.01171875 38 C-64.5817817 38.71104731 -63.13990204 39.39854478 -61.6875 40.0625 C-59.875 41.0625 -59.875 41.0625 -58.875 43.0625 C-46.11783029 50.87301207 -29.29616194 53.25995395 -14.6875 50.44921875 C-10.92141179 49.38179549 -8.14852227 48.24484818 -4.875 46.0625 C-5.54267195 43.02122795 -5.54267195 43.02122795 -7.6171875 41.9296875 C-8.32101563 41.60226563 -9.02484375 41.27484375 -9.75 40.9375 C-10.44867188 40.60492188 -11.14734375 40.27234375 -11.8671875 39.9296875 C-14.01303783 38.96879312 -14.01303783 38.96879312 -16.875 38.0625 C-16.875 37.4025 -16.875 36.7425 -16.875 36.0625 C-17.81601563 36.00191406 -18.75703125 35.94132812 -19.7265625 35.87890625 C-20.97179687 35.79511719 -22.21703125 35.71132812 -23.5 35.625 C-24.72976562 35.54378906 -25.95953125 35.46257812 -27.2265625 35.37890625 C-30.49032388 35.09586056 -33.65443859 34.65211047 -36.875 34.0625 C-36.875 33.4025 -36.875 32.7425 -36.875 32.0625 C-38.091875 31.959375 -39.30875 31.85625 -40.5625 31.75 C-44.27647573 31.28822682 -46.87126385 30.40916887 -49.875 28.0625 C-49.875 27.4025 -49.875 26.7425 -49.875 26.0625 C-50.75478516 25.91361328 -50.75478516 25.91361328 -51.65234375 25.76171875 C-56.70160038 24.17328828 -60.12306611 19.2373967 -62.875 14.9375 C-64.02165568 11.64086491 -63.88674752 10.35573819 -62.875 7.0625 C-58.38110524 1.54830771 -52.43450808 -1.54011634 -45.875 -3.9375 C-45.18535156 -4.2365625 -44.49570313 -4.535625 -43.78515625 -4.84375 C-29.48075063 -10.27389343 -12.67071759 -7.99929479 0 0 Z " fill="#898A89" transform="translate(223.875,94.9375)"/>
<path d="M0 0 C13 1 13 1 15 2 C16.43805239 2.1076933 17.88077955 2.15619161 19.32275391 2.17358398 C20.6652269 2.19381874 20.6652269 2.19381874 22.03482056 2.21446228 C23.49098282 2.23011986 23.49098282 2.23011986 24.9765625 2.24609375 C27.02995187 2.27905137 29.08333718 2.31226268 31.13671875 2.34570312 C34.37545792 2.39297862 37.61418294 2.43736828 40.85302734 2.47680664 C43.97772029 2.51674417 47.10206468 2.56825636 50.2265625 2.62109375 C51.18519196 2.6295079 52.14382141 2.63792206 53.13150024 2.64659119 C58.75727201 2.74903631 63.59204319 3.44361238 69 5 C70.27875 5.268125 71.5575 5.53625 72.875 5.8125 C80.10495071 7.61998768 87.09510929 11.49363604 93 16 C93 16.66 93 17.32 93 18 C93.66 18 94.32 18 95 18 C95.33 37.47 95.66 56.94 96 77 C95.01 77 94.02 77 93 77 C92.67 76.01 92.34 75.02 92 74 C83.1740399 63.72424242 69.14864173 58.47388606 56 57 C47.32676633 56.45234279 38.62476002 56.48427428 29.9375 56.4375 C26.44506611 56.41365346 22.95287639 56.38554232 19.46058655 56.34571838 C17.30152439 56.32148969 15.14233262 56.30652701 12.98313904 56.30210876 C12.00764603 56.29192215 11.03215302 56.28173553 10.02709961 56.27124023 C9.17442001 56.26696518 8.32174042 56.26269012 7.44322205 56.25828552 C5 56 5 56 0 54 C0 36.18 0 18.36 0 0 Z " fill="#E4282E" transform="translate(49,14)"/>
<path d="M0 0 C9.81819607 -0.44348188 17.97086949 -0.40578055 27 4 C27.9590625 4.45890625 28.918125 4.9178125 29.90625 5.390625 C35.59094096 8.29409619 39.67116961 11.34650733 44 16 C44.99 16.33 45.98 16.66 47 17 C48.1328125 18.70703125 48.1328125 18.70703125 49.125 20.8125 C49.45757812 21.49957031 49.79015625 22.18664062 50.1328125 22.89453125 C52.02774025 27.49527926 52.13801244 31.77273645 52.11352539 36.70605469 C52.11367142 37.47717087 52.11381744 38.24828705 52.1139679 39.04277039 C52.11327249 41.5858341 52.10549749 44.12882412 52.09765625 46.671875 C52.09579075 48.43735718 52.09436747 50.20283987 52.09336853 51.96832275 C52.08955375 56.61091546 52.07973232 61.2534768 52.06866455 65.89605713 C52.05662776 71.46861625 52.05204324 77.04118587 52.04621124 82.61375427 C52.03652003 91.07585799 52.01735619 99.53789289 52 108 C35.83 108 19.66 108 3 108 C2.95101562 100.79027344 2.90203125 93.58054687 2.8515625 86.15234375 C2.81617173 81.58136628 2.78020914 77.01040762 2.7421875 72.43945312 C2.68190958 65.18630687 2.6237345 57.9331869 2.578125 50.67993164 C2.5412159 44.83137294 2.49484033 38.98295851 2.44193649 33.13452339 C2.4234225 30.90467424 2.40830352 28.6747942 2.39665604 26.44489861 C2.37974254 23.31850325 2.35069466 20.19243613 2.31884766 17.06616211 C2.31668747 16.14690445 2.31452728 15.22764679 2.31230164 14.28053284 C2.24559253 9.14474378 1.66171968 4.86757354 0 0 Z " fill="#626363" transform="translate(84,89)"/>
<path d="M0 0 C6.04056693 4.31776709 10.925981 8.81388182 13.125 16.0625 C14.08221666 22.53393915 14.17075096 28.27011117 10.625 33.9375 C7.31835773 38.21714945 3.35848585 41.72083985 -0.875 45.0625 C-1.52726562 44.72476563 -2.17953125 44.38703125 -2.8515625 44.0390625 C-7.45261806 41.6910312 -11.89272085 39.5047387 -16.875 38.0625 C-16.875 37.4025 -16.875 36.7425 -16.875 36.0625 C-17.81601563 36.00191406 -18.75703125 35.94132812 -19.7265625 35.87890625 C-20.97179687 35.79511719 -22.21703125 35.71132812 -23.5 35.625 C-24.72976562 35.54378906 -25.95953125 35.46257812 -27.2265625 35.37890625 C-30.49032388 35.09586056 -33.65443859 34.65211047 -36.875 34.0625 C-36.875 33.4025 -36.875 32.7425 -36.875 32.0625 C-38.091875 31.959375 -39.30875 31.85625 -40.5625 31.75 C-44.27647573 31.28822682 -46.87126385 30.40916887 -49.875 28.0625 C-49.875 27.4025 -49.875 26.7425 -49.875 26.0625 C-50.46152344 25.96324219 -51.04804688 25.86398438 -51.65234375 25.76171875 C-56.70160038 24.17328828 -60.12306611 19.2373967 -62.875 14.9375 C-64.02165568 11.64086491 -63.88674752 10.35573819 -62.875 7.0625 C-58.38110524 1.54830771 -52.43450808 -1.54011634 -45.875 -3.9375 C-45.18535156 -4.2365625 -44.49570313 -4.535625 -43.78515625 -4.84375 C-29.48075063 -10.27389343 -12.67071759 -7.99929479 0 0 Z " fill="#636464" transform="translate(223.875,94.9375)"/>
<path d="M0 0 C3.96 0 7.92 0 12 0 C12 12.21 12 24.42 12 37 C13.32 37 14.64 37 16 37 C16 25.12 16 13.24 16 1 C18.64 1 21.28 1 24 1 C24 5.29 24 9.58 24 14 C24.66 14 25.32 14 26 14 C26 13.01 26 12.02 26 11 C26.66 11 27.32 11 28 11 C28.103125 10.443125 28.20625 9.88625 28.3125 9.3125 C29.2327252 6.21719704 30.69393133 3.30606867 33 1 C34.51928038 0.92820036 36.04167482 0.91607993 37.5625 0.9375 C38.38878906 0.94652344 39.21507812 0.95554688 40.06640625 0.96484375 C40.70449219 0.97644531 41.34257813 0.98804688 42 1 C40.17910512 4.89812933 37.76489555 8.21336138 35.2421875 11.68359375 C33.72740474 14.50833015 33.49019175 15.83258023 34 19 C35.21880231 21.29021458 36.4391242 23.35860738 37.875 25.5 C40.40546794 29.38186479 42.26375354 32.65938384 44 37 C40.37 37 36.74 37 33 37 C30.69 32.38 28.38 27.76 26 23 C25.67 27.62 25.34 32.24 25 37 C22.69 37 20.38 37 18 37 C18.01571045 38.4226416 18.01571045 38.4226416 18.03173828 39.87402344 C18.06586708 43.40008991 18.09092168 46.92598029 18.10986328 50.45214844 C18.11990744 51.97691623 18.13354531 53.50166484 18.15087891 55.02636719 C18.17519738 57.22075138 18.18649889 59.41488042 18.1953125 61.609375 C18.21102295 63.5888916 18.21102295 63.5888916 18.22705078 65.60839844 C18.01701697 68.74580679 17.77345817 70.44914617 16 73 C12.81175432 74.59412284 9.37103338 74.10174735 5.875 74.0625 C5.12089844 74.05798828 4.36679688 74.05347656 3.58984375 74.04882812 C1.72652873 74.03703499 -0.13674555 74.01909942 -2 74 C-2 70.37 -2 66.74 -2 63 C1.63 63 5.26 63 9 63 C9 54.42 9 45.84 9 37 C7.02 37 5.04 37 3 37 C2.67 33.04 2.34 29.08 2 25 C0.68 28.96 -0.64 32.92 -2 37 C-4.97 37 -7.94 37 -11 37 C-12.485 31.555 -12.485 31.555 -14 26 C-14.33 29.63 -14.66 33.26 -15 37 C-17.97 37 -20.94 37 -24 37 C-24 25.12 -24 13.24 -24 1 C-20.04 1 -16.08 1 -12 1 C-11.16368595 4.12423033 -10.33082292 7.24930944 -9.5 10.375 C-9.26152344 11.26445312 -9.02304687 12.15390625 -8.77734375 13.0703125 C-8.43896484 14.34648437 -8.43896484 14.34648437 -8.09375 15.6484375 C-7.88427734 16.43395996 -7.67480469 17.21948242 -7.45898438 18.02880859 C-7 20 -7 20 -7 22 C-6.34 22 -5.68 22 -5 22 C-5.03996094 21.17113281 -5.07992187 20.34226563 -5.12109375 19.48828125 C-4.98359773 15.52750874 -4.13060034 11.97574516 -3.0625 8.1875 C-2.88009766 7.50751953 -2.69769531 6.82753906 -2.50976562 6.12695312 C-1.14338298 1.14338298 -1.14338298 1.14338298 0 0 Z " fill="#111111" transform="translate(69,206)"/>
<path d="M0 0 C2.64 0 5.28 0 8 0 C8 4.29 8 8.58 8 13 C8.66 13 9.32 13 10 13 C10 12.01 10 11.02 10 10 C10.66 10 11.32 10 12 10 C12.103125 9.443125 12.20625 8.88625 12.3125 8.3125 C13.2327252 5.21719704 14.69393133 2.30606867 17 0 C18.51928038 -0.07179964 20.04167482 -0.08392007 21.5625 -0.0625 C22.38878906 -0.05347656 23.21507812 -0.04445312 24.06640625 -0.03515625 C24.70449219 -0.02355469 25.34257813 -0.01195312 26 0 C24.17910512 3.89812933 21.76489555 7.21336138 19.2421875 10.68359375 C17.72740474 13.50833015 17.49019175 14.83258023 18 18 C19.21880231 20.29021458 20.4391242 22.35860738 21.875 24.5 C24.40546794 28.38186479 26.26375354 31.65938384 28 36 C24.37 36 20.74 36 17 36 C14.69 31.38 12.38 26.76 10 22 C9.67 26.62 9.34 31.24 9 36 C6.69 36 4.38 36 2 36 C2.01047363 36.95366455 2.02094727 37.9073291 2.03173828 38.88989258 C2.06794501 42.42891688 2.09090284 45.9679248 2.10986328 49.50708008 C2.11991935 51.03868361 2.133566 52.57026795 2.15087891 54.10180664 C2.17514498 56.30359636 2.18648688 58.50513219 2.1953125 60.70703125 C2.20563507 61.39150833 2.21595764 62.07598541 2.22659302 62.78120422 C2.22745382 66.43061661 2.08567666 67.87148502 0 71 C-3.56045177 72.18681726 -6.43808337 72.09689832 -10.1875 72.0625 C-12.09595703 72.04896484 -12.09595703 72.04896484 -14.04296875 72.03515625 C-15.01878906 72.02355469 -15.99460937 72.01195312 -17 72 C-17 69.03 -17 66.06 -17 63 C-13.04 63 -9.08 63 -5 63 C-5 54.42 -5 45.84 -5 37 C-3.35 37 -1.7 37 0 37 C0 24.79 0 12.58 0 0 Z " fill="#1B1B1B" transform="translate(85,207)"/>
<path d="M0 0 C2.64 0 5.28 0 8 0 C8.33 5.94 8.66 11.88 9 18 C9.99 16.02 10.98 14.04 12 12 C12.66 12 13.32 12 14 12 C14 11.34 14 10.68 14 10 C16.95664519 8.5216774 19.74229737 8.93967217 23 9 C23 9.99 23 10.98 23 12 C22.34 12 21.68 12 21 12 C19.13345022 16.23084618 18 20.34739117 18 25 C18.66 25 19.32 25 20 25 C20.33 26.65 20.66 28.3 21 30 C21.66 30 22.32 30 23 30 C23.66 32.31 24.32 34.62 25 37 C21.7 37 18.4 37 15 37 C14.65066406 36.28972656 14.30132812 35.57945312 13.94140625 34.84765625 C13.48636719 33.92855469 13.03132812 33.00945312 12.5625 32.0625 C12.11003906 31.14597656 11.65757812 30.22945312 11.19140625 29.28515625 C10.19474606 27.09471096 10.19474606 27.09471096 9 26 C8.67 29.63 8.34 33.26 8 37 C7.34 37 6.68 37 6 37 C6 39.97 6 42.94 6 46 C7.98 46 9.96 46 12 46 C12 47.98 12 49.96 12 52 C10.02 52 8.04 52 6 52 C6 56.29 6 60.58 6 65 C8.31 65 10.62 65 13 65 C13.09765625 71.15234375 13.09765625 71.15234375 13 73 C11.35034831 74.64965169 9.4523645 74.24949498 7.1875 74.3125 C6.31480469 74.34988281 5.44210938 74.38726562 4.54296875 74.42578125 C1.0804959 73.84604309 0.12017547 72.78333728 -2 70 C-2.34959406 67.31827524 -2.46923774 65.06062042 -2.390625 62.390625 C-2.38496521 61.66381531 -2.37930542 60.93700562 -2.37347412 60.18817139 C-2.35114553 57.87476755 -2.30096048 55.5629328 -2.25 53.25 C-2.22993023 51.67840784 -2.21168029 50.10679132 -2.1953125 48.53515625 C-2.15129293 44.68950283 -2.08229375 40.84501711 -2 37 C-1.34 37 -0.68 37 0 37 C0 24.79 0 12.58 0 0 Z " fill="#101010" transform="translate(196,206)"/>
<path d="M0 0 C11.22 0 22.44 0 34 0 C35.35700647 2.71401294 35.1123861 4.84846316 35.09765625 7.8828125 C35.09443359 9.04941406 35.09121094 10.21601563 35.08789062 11.41796875 C35.07532227 13.25294922 35.07532227 13.25294922 35.0625 15.125 C35.05798828 16.35605469 35.05347656 17.58710938 35.04882812 18.85546875 C35.0370133 21.90369392 35.02054028 24.95182314 35 28 C32.69 28 30.38 28 28 28 C27.505 18.595 27.505 18.595 27 9 C24.03 8.505 24.03 8.505 21 8 C21 14.6 21 21.2 21 28 C18.36 28 15.72 28 13 28 C13 21.4 13 14.8 13 8 C11.02 8.33 9.04 8.66 7 9 C6.67 15.27 6.34 21.54 6 28 C3.36 28 0.72 28 -2 28 C-2 19.42 -2 10.84 -2 2 C-1.34 2 -0.68 2 0 2 C0 1.34 0 0.68 0 0 Z " fill="#131313" transform="translate(254,215)"/>
<path d="M0 0 C0.98291016 0.00966797 1.96582031 0.01933594 2.97851562 0.02929688 C4.00267578 0.05443359 5.02683594 0.07957031 6.08203125 0.10546875 C7.63567383 0.12577148 7.63567383 0.12577148 9.22070312 0.14648438 C11.77886737 0.1818507 14.33676454 0.23565779 16.89453125 0.29296875 C16.89453125 3.59296875 16.89453125 6.89296875 16.89453125 10.29296875 C11.28453125 10.29296875 5.67453125 10.29296875 -0.10546875 10.29296875 C0.22453125 11.61296875 0.55453125 12.93296875 0.89453125 14.29296875 C1.88195313 14.34195313 2.869375 14.3909375 3.88671875 14.44140625 C5.16804688 14.51617187 6.449375 14.5909375 7.76953125 14.66796875 C9.04570313 14.73757812 10.321875 14.8071875 11.63671875 14.87890625 C14.89453125 15.29296875 14.89453125 15.29296875 16.89453125 17.29296875 C17.14667469 20.15157173 17.26480905 22.87117935 17.26953125 25.73046875 C17.29402344 26.50712891 17.31851563 27.28378906 17.34375 28.08398438 C17.37332791 33.80731057 17.37332791 33.80731057 15.19091797 36.02099609 C12.45729896 37.53515248 10.80101958 37.64017494 7.69140625 37.5859375 C6.221875 37.57143555 6.221875 37.57143555 4.72265625 37.55664062 C3.19898438 37.51893555 3.19898438 37.51893555 1.64453125 37.48046875 C0.61328125 37.46693359 -0.41796875 37.45339844 -1.48046875 37.43945312 C-4.02266667 37.40414482 -6.56380098 37.35482911 -9.10546875 37.29296875 C-9.10546875 34.32296875 -9.10546875 31.35296875 -9.10546875 28.29296875 C-3.16546875 28.29296875 2.77453125 28.29296875 8.89453125 28.29296875 C8.89453125 26.31296875 8.89453125 24.33296875 8.89453125 22.29296875 C7.83492187 22.31617188 6.7753125 22.339375 5.68359375 22.36328125 C4.29557995 22.38203819 2.90755855 22.40023847 1.51953125 22.41796875 C0.47152344 22.44310547 0.47152344 22.44310547 -0.59765625 22.46875 C-2.43444361 22.48641142 -4.27148838 22.39600136 -6.10546875 22.29296875 C-8.71589087 19.68254663 -8.39393663 17.7817569 -8.42773438 14.22070312 C-8.42451172 13.44017578 -8.42128906 12.65964844 -8.41796875 11.85546875 C-8.43408203 11.07880859 -8.45019531 10.30214844 -8.46679688 9.50195312 C-8.47169196 3.81875534 -8.47169196 3.81875534 -6.90185547 1.56494141 C-4.48987299 -0.14291789 -2.93806596 -0.05094912 0 0 Z " fill="#171717" transform="translate(24.10546875,205.70703125)"/>
<path d="M0 0 C3.41714149 -0.0809323 6.83236685 -0.14046835 10.25 -0.1875 C11.70212891 -0.22520508 11.70212891 -0.22520508 13.18359375 -0.26367188 C14.58544922 -0.27817383 14.58544922 -0.27817383 16.015625 -0.29296875 C16.87446289 -0.3086792 17.73330078 -0.32438965 18.61816406 -0.34057617 C21.60539233 0.0865644 22.92134971 0.81469148 25 3 C25.45410156 5.36010742 25.45410156 5.36010742 25.390625 8.10546875 C25.37128906 9.57983398 25.37128906 9.57983398 25.3515625 11.08398438 C25.31804687 12.10814453 25.28453125 13.13230469 25.25 14.1875 C25.23195313 15.22326172 25.21390625 16.25902344 25.1953125 17.32617188 C25.14814437 19.88504284 25.08234057 22.44205842 25 25 C23.02 25.99 23.02 25.99 21 27 C21 27.66 21 28.32 21 29 C18.08277452 29.08103404 15.16780484 29.14051081 12.25 29.1875 C11.425 29.21263672 10.6 29.23777344 9.75 29.26367188 C6.26014199 29.3058879 3.6645167 29.29613225 0.44921875 27.86328125 C-1.61287357 25.2120197 -1.49861215 23.3245012 -1.4375 20 C-1.43621094 18.948125 -1.43492188 17.89625 -1.43359375 16.8125 C-1 14 -1 14 0.078125 12.13671875 C3.07534494 10.36397281 5.7525726 10.71796071 9.1875 10.8125 C11.09595703 10.85310547 11.09595703 10.85310547 13.04296875 10.89453125 C14.50669922 10.94673828 14.50669922 10.94673828 16 11 C16 10.34 16 9.68 16 9 C10.72 9 5.44 9 0 9 C0 6.03 0 3.06 0 0 Z " fill="#222222" transform="translate(91,251)"/>
<path d="M0 0 C1.38541992 0.00483398 1.38541992 0.00483398 2.79882812 0.00976562 C4.17844727 -0.0144043 4.17844727 -0.0144043 5.5859375 -0.0390625 C6.91141602 -0.0400293 6.91141602 -0.0400293 8.26367188 -0.04101562 C9.07312256 -0.04399658 9.88257324 -0.04697754 10.71655273 -0.05004883 C12.86132812 0.32226562 12.86132812 0.32226562 14.62158203 1.5324707 C17.16292166 5.20134837 16.32903642 10.0162109 16.29882812 14.32226562 C16.32879883 15.83820313 16.32879883 15.83820313 16.359375 17.38476562 C16.35873047 18.35414063 16.35808594 19.32351562 16.35742188 20.32226562 C16.36020142 21.65257812 16.36020142 21.65257812 16.36303711 23.00976562 C15.86132812 25.32226562 15.86132812 25.32226562 14.09423828 27.10986328 C11.69970445 28.41002237 10.338174 28.70791072 7.63867188 28.72070312 C6.85298828 28.72457031 6.06730469 28.7284375 5.2578125 28.73242188 C4.44634766 28.72082031 3.63488281 28.70921875 2.79882812 28.69726562 C1.98349609 28.70886719 1.16816406 28.72046875 0.328125 28.73242188 C-0.45626953 28.72855469 -1.24066406 28.7246875 -2.04882812 28.72070312 C-2.76176025 28.71731934 -3.47469238 28.71393555 -4.20922852 28.71044922 C-6.78075954 28.19308438 -7.63383227 27.464125 -9.13867188 25.32226562 C-9.51098633 22.90209961 -9.51098633 22.90209961 -9.50195312 20.06835938 C-9.50098633 18.53985352 -9.50098633 18.53985352 -9.5 16.98046875 C-9.48388672 15.91763672 -9.46777344 14.85480469 -9.45117188 13.75976562 C-9.45439453 12.69306641 -9.45761719 11.62636719 -9.4609375 10.52734375 C-9.40148963 1.99387155 -8.72432528 0.0701005 0 0 Z " fill="#121212" transform="translate(232.138671875,214.677734375)"/>
<path d="M0 0 C3.27088814 -0.02693321 6.54155522 -0.04680664 9.8125 -0.0625 C10.74126953 -0.07087891 11.67003906 -0.07925781 12.62695312 -0.08789062 C13.51962891 -0.09111328 14.41230469 -0.09433594 15.33203125 -0.09765625 C16.56530151 -0.10551147 16.56530151 -0.10551147 17.82348633 -0.11352539 C20 0 20 0 23 1 C24.93531061 4.87062122 24.27192404 9.61722942 24.3125 13.875 C24.34150391 14.88175781 24.37050781 15.88851563 24.40039062 16.92578125 C24.46276487 24.15159774 24.46276487 24.15159774 22.546875 27.6640625 C18.70370442 29.67995872 15.21425567 29.58152672 10.9375 29.5 C10.12216797 29.51546875 9.30683594 29.5309375 8.46679688 29.546875 C2.61456862 29.50840513 2.61456862 29.50840513 -0.03515625 27.31640625 C-1.19155848 24.54010455 -1.39953837 22.44345079 -1.375 19.4375 C-1.38273438 18.48746094 -1.39046875 17.53742188 -1.3984375 16.55859375 C-1 14 -1 14 0.10546875 12.171875 C2.9600533 10.4061526 5.37287315 10.71404574 8.6875 10.8125 C10.45673828 10.85310547 10.45673828 10.85310547 12.26171875 10.89453125 C13.16535156 10.92933594 14.06898438 10.96414063 15 11 C15 10.34 15 9.68 15 9 C10.05 9 5.1 9 0 9 C0 6.03 0 3.06 0 0 Z " fill="#1E1E1E" transform="translate(212,251)"/>
<path d="M0 0 C1.20462891 0.00277954 1.20462891 0.00277954 2.43359375 0.00561523 C3.31273437 0.0049707 4.191875 0.00432617 5.09765625 0.00366211 C6.47050781 0.03363281 6.47050781 0.03363281 7.87109375 0.06420898 C8.78632813 0.05711914 9.7015625 0.0500293 10.64453125 0.04272461 C17.36768456 0.10680158 17.36768456 0.10680158 19.63134766 1.88256836 C21.33860069 4.1122852 21.2711915 5.65754156 21.24609375 8.43920898 C21.25382812 9.29385742 21.2615625 10.14850586 21.26953125 11.02905273 C20.77182412 14.11776465 20.23008684 15.4202445 17.87109375 17.50170898 C14.515625 17.89233398 14.515625 17.89233398 10.68359375 17.75170898 C9.41128906 17.71561523 8.13898438 17.67952148 6.828125 17.64233398 C5.85230469 17.59592773 4.87648437 17.54952148 3.87109375 17.50170898 C3.87109375 18.49170898 3.87109375 19.48170898 3.87109375 20.50170898 C9.15109375 20.50170898 14.43109375 20.50170898 19.87109375 20.50170898 C19.87109375 23.14170898 19.87109375 25.78170898 19.87109375 28.50170898 C16.26734912 28.64671542 12.66435133 28.73567662 9.05859375 28.81420898 C8.03443359 28.85610352 7.01027344 28.89799805 5.95507812 28.94116211 C-1.4931616 29.0632644 -1.4931616 29.0632644 -4.3046875 26.57983398 C-5.44747473 22.31198404 -5.56424145 18.34032693 -5.50390625 13.93920898 C-5.51550781 13.08907227 -5.52710938 12.23893555 -5.5390625 11.36303711 C-5.53519531 10.54125977 -5.53132812 9.71948242 -5.52734375 8.87280273 C-5.52395996 8.12957764 -5.52057617 7.38635254 -5.51708984 6.62060547 C-4.87611029 3.1218246 -3.56784038 0.84081559 0 0 Z " fill="#1B1B1B" transform="translate(159.12890625,214.498291015625)"/>
<path d="M0 0 C3.4165052 -0.08724706 6.83272313 -0.14047325 10.25 -0.1875 C11.70212891 -0.22520508 11.70212891 -0.22520508 13.18359375 -0.26367188 C14.58544922 -0.27817383 14.58544922 -0.27817383 16.015625 -0.29296875 C16.87446289 -0.3086792 17.73330078 -0.32438965 18.61816406 -0.34057617 C21.60216266 0.08610259 22.91628611 0.82575417 25 3 C25.50170898 5.3125 25.50170898 5.3125 25.49609375 8 C25.49673828 8.969375 25.49738281 9.93875 25.49804688 10.9375 C25.47806641 11.948125 25.45808594 12.95875 25.4375 14 C25.44458984 15.010625 25.45167969 16.02125 25.45898438 17.0625 C25.39530856 24.42930148 25.39530856 24.42930148 23.76025391 26.78979492 C21.50357096 28.34130357 20.12830473 28.37332012 17.40234375 28.36328125 C16.51869141 28.36263672 15.63503906 28.36199219 14.72460938 28.36132812 C13.80486328 28.34521484 12.88511719 28.32910156 11.9375 28.3125 C10.55208008 28.31733398 10.55208008 28.31733398 9.13867188 28.32226562 C2.26705173 28.26705173 2.26705173 28.26705173 0 26 C-0.1953125 22.9609375 -0.1953125 22.9609375 -0.125 19.375 C-0.10695312 18.18648438 -0.08890625 16.99796875 -0.0703125 15.7734375 C-0.04710937 14.85820312 -0.02390625 13.94296875 0 13 C3.06533164 11.46733418 6.26754272 11.89723529 9.625 11.9375 C10.68460938 11.94426758 10.68460938 11.94426758 11.765625 11.95117188 C13.51045275 11.96296125 15.255237 11.98089676 17 12 C17 10.68 17 9.36 17 8 C11.39 8 5.78 8 0 8 C0 5.36 0 2.72 0 0 Z " fill="#171717" transform="translate(146,251)"/>
<path d="M0 0 C2.31 0 4.62 0 7 0 C8.99616554 1.99616554 8.40983427 5.81701963 8.5625 8.5625 C8.60568359 9.27341797 8.64886719 9.98433594 8.69335938 10.71679688 C8.79971777 12.47761912 8.90038846 14.2387832 9 16 C9.25652344 15.4225 9.51304687 14.845 9.77734375 14.25 C11.01429722 11.85105994 12.12566749 9.95135987 14 8 C17.10352525 7.29418155 19.87228538 7.5093781 23 8 C22.26677228 11.37707769 21.11569904 13.26722207 19 16 C18.67 16.99 18.34 17.98 18 19 C17.34 19 16.68 19 16 19 C16 19.99 16 20.98 16 22 C16.66 22 17.32 22 18 22 C18.84324672 23.578076 19.67423918 25.1627042 20.5 26.75 C21.19609375 28.07257813 21.19609375 28.07257813 21.90625 29.421875 C23 32 23 32 23 36 C15.98159509 36.3190184 15.98159509 36.3190184 13 34 C12.25 31.375 12.25 31.375 12 29 C11.34 29 10.68 29 10 29 C9.67 28.01 9.34 27.02 9 26 C8.67 29.63 8.34 33.26 8 37 C5.36 37 2.72 37 0 37 C0 24.79 0 12.58 0 0 Z " fill="#171717" transform="translate(120,243)"/>
<path d="M0 0 C2.64 0 5.28 0 8 0 C8 0.33 8 0.66 8 1 C5.69 1 3.38 1 1 1 C1 12.55 1 24.1 1 36 C2.98 36 4.96 36 7 36 C7 32.04 7 28.08 7 24 C7.99 24 8.98 24 10 24 C9.67 24.66 9.34 25.32 9 26 C8.7724985 27.87056791 8.59037189 29.74685958 8.4375 31.625 C8.35371094 32.62789062 8.26992187 33.63078125 8.18359375 34.6640625 C8.12300781 35.43492187 8.06242188 36.20578125 8 37 C7.34 37 6.68 37 6 37 C6 39.97 6 42.94 6 46 C7.98 46 9.96 46 12 46 C12 47.98 12 49.96 12 52 C10.02 52 8.04 52 6 52 C6 56.29 6 60.58 6 65 C8.31 65 10.62 65 13 65 C13.09765625 71.15234375 13.09765625 71.15234375 13 73 C11.35034831 74.64965169 9.4523645 74.24949498 7.1875 74.3125 C6.31480469 74.34988281 5.44210938 74.38726562 4.54296875 74.42578125 C1.0804959 73.84604309 0.12017547 72.78333728 -2 70 C-2.34959406 67.31827524 -2.46923774 65.06062042 -2.390625 62.390625 C-2.38496521 61.66381531 -2.37930542 60.93700562 -2.37347412 60.18817139 C-2.35114553 57.87476755 -2.30096048 55.5629328 -2.25 53.25 C-2.22993023 51.67840784 -2.21168029 50.10679132 -2.1953125 48.53515625 C-2.15129293 44.68950283 -2.08229375 40.84501711 -2 37 C-1.34 37 -0.68 37 0 37 C0 24.79 0 12.58 0 0 Z " fill="#131313" transform="translate(196,206)"/>
<path d="M0 0 C8.25 0 16.5 0 25 0 C25 2.97 25 5.94 25 9 C22.03 9 19.06 9 16 9 C16 17.91 16 26.82 16 36 C13.36 36 10.72 36 8 36 C8 27.09 8 18.18 8 9 C5.36 9 2.72 9 0 9 C0 6.03 0 3.06 0 0 Z " fill="#141414" transform="translate(129,207)"/>
<path d="M0 0 C2.97 0 5.94 0 9 0 C9 12.21 9 24.42 9 37 C6.03 37 3.06 37 0 37 C0 24.79 0 12.58 0 0 Z " fill="#272727" transform="translate(183,206)"/>
<path d="M0 0 C0 11.22 0 22.44 0 34 C-4.33938291 36.16969145 -6.48390408 36.21326104 -11.25 36.125 C-13.14492187 36.09792969 -13.14492187 36.09792969 -15.078125 36.0703125 C-16.52445312 36.03550781 -16.52445312 36.03550781 -18 36 C-18 33.03 -18 30.06 -18 27 C-14.04 27 -10.08 27 -6 27 C-6 18.42 -6 9.84 -6 1 C-1 0 -1 0 0 0 Z " fill="#0A0A0A" transform="translate(86,243)"/>
<path d="M0 0 C1.46373047 0.04060547 1.46373047 0.04060547 2.95703125 0.08203125 C3.69308594 0.11683594 4.42914063 0.15164062 5.1875 0.1875 C5.1875 3.1575 5.1875 6.1275 5.1875 9.1875 C2.5475 9.1875 -0.0925 9.1875 -2.8125 9.1875 C-2.8125 15.7875 -2.8125 22.3875 -2.8125 29.1875 C-5.4525 29.1875 -8.0925 29.1875 -10.8125 29.1875 C-10.95736019 24.91702167 -11.04642616 20.64717167 -11.125 16.375 C-11.16689453 15.16005859 -11.20878906 13.94511719 -11.25195312 12.69335938 C-11.26806641 11.52998047 -11.28417969 10.36660156 -11.30078125 9.16796875 C-11.32696533 8.09442139 -11.35314941 7.02087402 -11.38012695 5.91479492 C-10.8125 3.1875 -10.8125 3.1875 -8.46289062 1.33203125 C-5.41879433 0.01748414 -3.29962625 -0.1192636 0 0 Z " fill="#1E1E1E" transform="translate(185.8125,250.8125)"/>
<path d="M0 0 C0.33 0 0.66 0 1 0 C1 2.31 1 4.62 1 7 C3.97 7.33 6.94 7.66 10 8 C10 10.97 10 13.94 10 17 C14.95 17 19.9 17 25 17 C25 17.66 25 18.32 25 19 C24.08476562 19.04898437 23.16953125 19.09796875 22.2265625 19.1484375 C21.03804687 19.22320312 19.84953125 19.29796875 18.625 19.375 C16.84996094 19.47941406 16.84996094 19.47941406 15.0390625 19.5859375 C11.89437681 19.70217346 11.89437681 19.70217346 10 22 C9.5342637 24.55867474 9.16515752 27.04687908 8.875 29.625 C8.78863281 30.33140625 8.70226562 31.0378125 8.61328125 31.765625 C8.40118817 33.50950141 8.19959009 35.2546484 8 37 C7.34 36.67 6.68 36.34 6 36 C6.33 33.36 6.66 30.72 7 28 C4.69 28 2.38 28 0 28 C0 23.71 0 19.42 0 15 C1.98 15 3.96 15 6 15 C6 13.02 6 11.04 6 9 C4.02 9 2.04 9 0 9 C0 6.03 0 3.06 0 0 Z " fill="#E0E0E0" transform="translate(202,243)"/>
<path d="M0 0 C3.96 0 7.92 0 12 0 C12 12.21 12 24.42 12 37 C13.32 37.33 14.64 37.66 16 38 C14.35 38 12.7 38 11 38 C11 46.58 11 55.16 11 64 C7.04 64 3.08 64 -1 64 C-1 66.97 -1 69.94 -1 73 C7.415 72.505 7.415 72.505 16 72 C14 74 14 74 10.3046875 74.1953125 C8.82799892 74.182009 7.35137642 74.15814835 5.875 74.125 C5.12089844 74.11597656 4.36679688 74.10695313 3.58984375 74.09765625 C1.72642746 74.0740687 -0.13682593 74.03819719 -2 74 C-2 70.37 -2 66.74 -2 63 C1.63 63 5.26 63 9 63 C9 54.42 9 45.84 9 37 C7.02 37 5.04 37 3 37 C2.93941406 36.15695313 2.87882812 35.31390625 2.81640625 34.4453125 C2.73261719 33.34960938 2.64882812 32.25390625 2.5625 31.125 C2.48128906 30.03445312 2.40007812 28.94390625 2.31640625 27.8203125 C2.16998297 25.05271029 2.16998297 25.05271029 1 23 C1.99 22.01 2.98 21.02 4 20 C4 25.28 4 30.56 4 36 C6.31 36 8.62 36 11 36 C11 24.45 11 12.9 11 1 C7.37 1 3.74 1 0 1 C0 0.67 0 0.34 0 0 Z " fill="#707070" transform="translate(69,206)"/>
<path d="M0 0 C2.64 0 5.28 0 8 0 C8 0.33 8 0.66 8 1 C5.69 1 3.38 1 1 1 C1 12.55 1 24.1 1 36 C2.98 36 4.96 36 7 36 C7 32.04 7 28.08 7 24 C7.99 24 8.98 24 10 24 C9.67 24.66 9.34 25.32 9 26 C8.7724985 27.87056791 8.59037189 29.74685958 8.4375 31.625 C8.35371094 32.62789062 8.26992187 33.63078125 8.18359375 34.6640625 C8.12300781 35.43492187 8.06242188 36.20578125 8 37 C7.34 37 6.68 37 6 37 C6 39.64 6 42.28 6 45 C5.67 45 5.34 45 5 45 C5 43.02 5 41.04 5 39 C3.02 39 1.04 39 -1 39 C-1 49.23 -1 59.46 -1 70 C-1.33 70 -1.66 70 -2 70 C-2 59.11 -2 48.22 -2 37 C-1.34 37 -0.68 37 0 37 C0 24.79 0 12.58 0 0 Z " fill="#4D4D4D" transform="translate(196,206)"/>
<path d="M0 0 C2.97 0 5.94 0 9 0 C9.02687279 1.81242052 9.04633715 3.62495233 9.0625 5.4375 C9.07410156 6.44683594 9.08570313 7.45617187 9.09765625 8.49609375 C9 11 9 11 8 12 C5.32941149 12.14115161 2.67567762 12.04247107 0 12 C0 8.04 0 4.08 0 0 Z " fill="#E0E0E0" transform="translate(231,223)"/>
<path d="M0 0 C0.99 0.33 1.98 0.66 3 1 C2.67 1.66 2.34 2.32 2 3 C1.90434405 4.71532435 1.872046 6.43435493 1.87060547 8.15234375 C1.86745331 9.22685791 1.86430115 10.30137207 1.86105347 11.40844727 C1.8630777 12.57303467 1.86510193 13.73762207 1.8671875 14.9375 C1.86623077 16.12851318 1.86527405 17.31952637 1.86428833 18.54663086 C1.86360685 21.06852267 1.8654589 23.59041623 1.86962891 26.11230469 C1.87497757 29.98376384 1.86968279 33.85510698 1.86328125 37.7265625 C1.86394204 40.17187526 1.86522321 42.61718794 1.8671875 45.0625 C1.86516327 46.2270874 1.86313904 47.3916748 1.86105347 48.59155273 C1.86420563 49.66606689 1.86735779 50.74058105 1.87060547 51.84765625 C1.87140106 52.79648682 1.87219666 53.74531738 1.87301636 54.72290039 C1.85076166 57.0321225 1.85076166 57.0321225 3 59 C2.01 58.67 1.02 58.34 0 58 C0 38.86 0 19.72 0 0 Z " fill="#9D9E9D" transform="translate(156,132)"/>
<path d="M0 0 C1.98 0 3.96 0 6 0 C6 6.6 6 13.2 6 20 C5.67 20 5.34 20 5 20 C5 13.73 5 7.46 5 1 C3.68 1.33 2.36 1.66 1 2 C1 7.61 1 13.22 1 19 C0.34 19.33 -0.32 19.66 -1 20 C-1.02888514 16.85418577 -1.04675923 13.70840531 -1.0625 10.5625 C-1.07087891 9.66466797 -1.07925781 8.76683594 -1.08789062 7.84179688 C-1.09111328 6.98779297 -1.09433594 6.13378906 -1.09765625 5.25390625 C-1.10551147 4.06776733 -1.10551147 4.06776733 -1.11352539 2.85766602 C-1 1 -1 1 0 0 Z " fill="#CCCCCC" transform="translate(261,223)"/>
<path d="M0 0 C0.33 0 0.66 0 1 0 C1.14281162 7.49307518 1.28518326 14.98615863 1.42724609 22.47924805 C1.47564679 25.02938019 1.52414897 27.57951041 1.57275391 30.12963867 C1.64251834 33.79084787 1.71192026 37.45206379 1.78125 41.11328125 C1.80312378 42.2571077 1.82499756 43.40093414 1.84753418 44.579422 C1.86755493 45.64029526 1.88757568 46.70116852 1.90820312 47.79418945 C1.92596802 48.72906693 1.94373291 49.6639444 1.96203613 50.62715149 C1.99068708 52.41791652 2 54.20900579 2 56 C1.01 56.495 1.01 56.495 0 57 C0 38.19 0 19.38 0 0 Z " fill="#BD272B" transform="translate(144,33)"/>
<path d="M0 0 C2.29109597 -0.08075665 4.58299267 -0.13907731 6.875 -0.1875 C8.78925781 -0.23970703 8.78925781 -0.23970703 10.7421875 -0.29296875 C11.81726563 -0.19628906 12.89234375 -0.09960938 14 0 C14.66 0.99 15.32 1.98 16 3 C10.72 3 5.44 3 0 3 C0 2.01 0 1.02 0 0 Z " fill="#E3E3E3" transform="translate(163,232)"/>
<path d="M0 0 C0.33 0 0.66 0 1 0 C1.19466332 1.79090253 1.38051213 3.58276505 1.5625 5.375 C1.66691406 6.37273437 1.77132812 7.37046875 1.87890625 8.3984375 C2 11 2 11 1 13 C-2.63 13 -6.26 13 -10 13 C-10 12.01 -10 11.02 -10 10 C-7.36 10.66 -4.72 11.32 -2 12 C-2.66 9.69 -3.32 7.38 -4 5 C-3.34 5 -2.68 5 -2 5 C-2 5.66 -2 6.32 -2 7 C-1.34 7 -0.68 7 0 7 C0 4.69 0 2.38 0 0 Z " fill="#A5A5A5" transform="translate(145,267)"/>
<path d="M0 0 C2.97 0 5.94 0 9 0 C9 1.32 9 2.64 9 4 C6.03 4 3.06 4 0 4 C0 2.68 0 1.36 0 0 Z " fill="#C0C0C0" transform="translate(219,268)"/>
<path d="M0 0 C2.97 0 5.94 0 9 0 C9 1.32 9 2.64 9 4 C6.03 4 3.06 4 0 4 C0 2.68 0 1.36 0 0 Z " fill="#C3C3C3" transform="translate(154,268)"/>
<path d="M0 0 C2.97 0 5.94 0 9 0 C8.67 1.32 8.34 2.64 8 4 C5.36 4 2.72 4 0 4 C0 2.68 0 1.36 0 0 Z " fill="#C3C3C3" transform="translate(99,268)"/>
<path d="M0 0 C2.97 0 5.94 0 9 0 C9 0.99 9 1.98 9 3 C6.03 3 3.06 3 0 3 C0 2.01 0 1.02 0 0 Z " fill="#E5E5E5" transform="translate(163,223)"/>
<path d="M0 0 C2.97 0 5.94 0 9 0 C8.67 1.32 8.34 2.64 8 4 C7.01 4.495 7.01 4.495 6 5 C6 4.01 6 3.02 6 2 C3.69 2.33 1.38 2.66 -1 3 C-0.67 2.01 -0.34 1.02 0 0 Z " fill="#505050" transform="translate(134,251)"/>
<path d="M0 0 C1.60080151 4.00200378 0.29279692 7.04556236 -1 11 C-1.99 10.67 -2.98 10.34 -4 10 C-3.67 8.68 -3.34 7.36 -3 6 C-3 6.66 -3 7.32 -3 8 C-2.34 8 -1.68 8 -1 8 C-1.020625 7.05125 -1.04125 6.1025 -1.0625 5.125 C-1 2 -1 2 0 0 Z " fill="#555555" transform="translate(65,220)"/>
<path d="M0 0 C1.23556641 0.01740234 1.23556641 0.01740234 2.49609375 0.03515625 C3.32238281 0.04417969 4.14867188 0.05320313 5 0.0625 C5.63808594 0.07410156 6.27617188 0.08570313 6.93359375 0.09765625 C6.60359375 1.08765625 6.27359375 2.07765625 5.93359375 3.09765625 C5.60359375 2.43765625 5.27359375 1.77765625 4.93359375 1.09765625 C1.44688541 2.20706345 -1.84124862 3.36103291 -5.06640625 5.09765625 C-2.6606399 0.12573913 -2.6606399 0.12573913 0 0 Z " fill="#3C3C3C" transform="translate(104.06640625,206.90234375)"/>
</svg>
